<svg xmlns="http://www.w3.org/2000/svg" width="393" height="382.4" viewBox="0 0 393 382.4">
  <defs>
    <style>
      .a {
        fill: #0f172a;
      }
    </style>
  </defs>
  <g>
    <path class="a" d="M226.1,112.5c20.1,1.2,38.5,2.7,57,3.4a108.1,108.1,0,0,0,39.4-5.5,85,85,0,0,0,31-19c2.9-2.7,5.8-5.6,9.1-7.7A11.3,11.3,0,0,1,380,92.9a18.4,18.4,0,0,1-5.7,14.2c-18.1,18.3-40,29-65.2,33.2-21.5,3.5-43,2.1-64.6.4-17.4-1.5-35.1-2.1-51.6,4.8-28.6,12-45.9,33.3-50.2,64.3-2.4,17.1-.3,34.2,1.1,51.3,1.6,18.8,3,37.6-1.1,56.3s-14,35.9-28,49.9c-5.4,5.4-12.5,6.9-18.2,4.3s-8.6-8.9-5.6-15.3a16.3,16.3,0,0,1,3.3-4.9c18-17.4,24.8-39.1,24-63.5-.5-14.6-1.8-29.2-2.9-43.8-1.6-22.3-2-44.7,7.2-65.7,16.3-36.9,44.3-59.1,84.8-64.5C214,113,220.9,112.9,226.1,112.5Z"/>
    <path class="a" d="M246.8,146.9l26.5,1.9c8.9,70.7-43.8,131.4-122.5,123.3-.8-8.7-1.5-17.5-2.3-26.7h6c15.3.6,30.4-.1,44.4-6.7,29.1-13.8,45.4-36.9,47.8-69.3.5-6.1.1-12.3.1-18.4Z"/>
    <path class="a" d="M271.4,109.6l-26.9-2.1a147.4,147.4,0,0,1,4-39.4,117.2,117.2,0,0,1,31.1-55.5,18.9,18.9,0,0,1,12.9-5.9c5-.2,8.7,1.8,11.1,6.2s2,8.3-.9,11.9-7.6,8.6-11.3,13c-12.6,15-18.6,32.6-19.9,51.9C271.1,96.1,271.4,102.6,271.4,109.6Z"/>
    <path class="a" d="M109.2,242.6c.7,8.6,1.4,17.4,2.2,26.4-3,0-5.7.1-8.4,0-18.2-.7-35.9,1.6-51.6,11.8-4.9,3.1-9.2,7.1-13.8,10.8-1.2,1-2.3,2.2-3.6,3.2-4.8,3.5-10,3.9-14,1.1s-6.7-9.1-4.8-14.2a28.8,28.8,0,0,1,6.1-10.1c22.5-22.9,50.6-31.1,82-29.7l4.8.3C108.4,242.2,108.6,242.4,109.2,242.6Z"/>
    <path class="a" d="M352.7,83.8l-6.8,6.5L296.6,40.9,303,34Z"/>
    <path class="a" d="M95.3,341.4l-6.6,7.1L38.9,298.6,46,292Z"/>
    <path class="a" d="M153.8,190.4l42.9,43c-3,1-6.2,2.2-9.5,3a3.4,3.4,0,0,1-2.8-.9q-16.3-16.2-32.5-32.6a4.5,4.5,0,0,1-1-3.5C151.7,196.3,152.9,193.3,153.8,190.4Z"/>
    <path class="a" d="M67.7,279.3c3-.8,6.3-1.8,9.7-2.5a4.7,4.7,0,0,1,3.2,1.3c9.5,9.4,19.1,19,28.5,28.6a4.2,4.2,0,0,1,1.3,3.2c-.6,3.4-1.7,6.7-2.5,9.9Z"/>
    <path class="a" d="M196.2,150.4c3.3-.8,6.5-1.9,9.8-2.5a4.1,4.1,0,0,1,3.2,1c9.7,9.5,19.3,19.2,28.8,28.8a4.2,4.2,0,0,1,1.2,2.9c-.7,3.5-1.7,6.9-2.6,10.3Z"/>
    <path class="a" d="M320.1,105c-3.2.9-6.6,1.9-10.1,2.6a3.7,3.7,0,0,1-2.8-1.2q-13.5-13.2-26.7-26.7a4.4,4.4,0,0,1-1.2-3.2c.7-3.4,1.7-6.7,2.6-9.8Z"/>
    <path class="a" d="M167.2,170.1l7.6-7.2c5.1,5,10.1,9.6,14.8,14.5,2.6,2.7,2.2,4.7-.6,7.4s-4.8,2.5-7.1.1C177.1,180.2,172.4,175.4,167.2,170.1Z"/>
    <path class="a" d="M224.4,212l-7.4,7.8c-5.1-5-10.1-9.7-14.8-14.6-2.6-2.7-2.3-4.9.4-7.4s4.7-2.7,7.4-.1C214.7,202.2,219.3,206.9,224.4,212Z"/>
  </g>
</svg>
